<mxfile host="Electron" agent="Mozilla/5.0 (X11; Linux x86_64) AppleWebKit/537.36 (KHTML, like Gecko) draw.io/24.7.8 Chrome/128.0.6613.120 Electron/32.1.0 Safari/537.36" version="24.7.8">
  <diagram name="Page-1" id="PUxXQZ-slHLc7LS0RAwK">
    <mxGraphModel dx="2074" dy="1195" grid="1" gridSize="10" guides="1" tooltips="1" connect="1" arrows="1" fold="1" page="1" pageScale="1" pageWidth="850" pageHeight="1100" math="0" shadow="0">
      <root>
        <mxCell id="0" />
        <mxCell id="1" parent="0" />
        <mxCell id="YFfPmVTnKHHL20k1K9A--8" style="edgeStyle=orthogonalEdgeStyle;rounded=0;orthogonalLoop=1;jettySize=auto;html=1;entryX=0.5;entryY=0;entryDx=0;entryDy=0;" parent="1" source="YFfPmVTnKHHL20k1K9A--1" target="YFfPmVTnKHHL20k1K9A--3" edge="1">
          <mxGeometry relative="1" as="geometry" />
        </mxCell>
        <mxCell id="YFfPmVTnKHHL20k1K9A--9" style="edgeStyle=orthogonalEdgeStyle;rounded=0;orthogonalLoop=1;jettySize=auto;html=1;entryX=0.5;entryY=0;entryDx=0;entryDy=0;" parent="1" source="YFfPmVTnKHHL20k1K9A--1" target="YFfPmVTnKHHL20k1K9A--4" edge="1">
          <mxGeometry relative="1" as="geometry" />
        </mxCell>
        <mxCell id="YFfPmVTnKHHL20k1K9A--10" style="edgeStyle=orthogonalEdgeStyle;rounded=0;orthogonalLoop=1;jettySize=auto;html=1;entryX=0.5;entryY=0;entryDx=0;entryDy=0;" parent="1" source="YFfPmVTnKHHL20k1K9A--1" target="YFfPmVTnKHHL20k1K9A--5" edge="1">
          <mxGeometry relative="1" as="geometry" />
        </mxCell>
        <mxCell id="YFfPmVTnKHHL20k1K9A--1" value="Main&lt;div&gt;entrypoint&lt;/div&gt;" style="rounded=0;whiteSpace=wrap;html=1;" parent="1" vertex="1">
          <mxGeometry x="360" y="160" width="115" height="60" as="geometry" />
        </mxCell>
        <mxCell id="YFfPmVTnKHHL20k1K9A--11" style="edgeStyle=orthogonalEdgeStyle;rounded=0;orthogonalLoop=1;jettySize=auto;html=1;entryX=0;entryY=0.5;entryDx=0;entryDy=0;" parent="1" source="YFfPmVTnKHHL20k1K9A--3" target="YFfPmVTnKHHL20k1K9A--6" edge="1">
          <mxGeometry relative="1" as="geometry" />
        </mxCell>
        <mxCell id="YFfPmVTnKHHL20k1K9A--3" value="Loading mechanism" style="rounded=0;whiteSpace=wrap;html=1;" parent="1" vertex="1">
          <mxGeometry x="180" y="320" width="115" height="60" as="geometry" />
        </mxCell>
        <mxCell id="tVopMtu7INZ87qsOkfbR-3" style="edgeStyle=orthogonalEdgeStyle;rounded=0;orthogonalLoop=1;jettySize=auto;html=1;entryX=0.5;entryY=0;entryDx=0;entryDy=0;" edge="1" parent="1" source="YFfPmVTnKHHL20k1K9A--4" target="YFfPmVTnKHHL20k1K9A--7">
          <mxGeometry relative="1" as="geometry" />
        </mxCell>
        <mxCell id="YFfPmVTnKHHL20k1K9A--4" value="Plot rendering &amp;amp; exporting" style="rounded=0;whiteSpace=wrap;html=1;" parent="1" vertex="1">
          <mxGeometry x="360" y="320" width="115" height="60" as="geometry" />
        </mxCell>
        <mxCell id="tVopMtu7INZ87qsOkfbR-4" style="edgeStyle=orthogonalEdgeStyle;rounded=0;orthogonalLoop=1;jettySize=auto;html=1;entryX=0.5;entryY=0;entryDx=0;entryDy=0;" edge="1" parent="1" source="YFfPmVTnKHHL20k1K9A--5" target="YFfPmVTnKHHL20k1K9A--7">
          <mxGeometry relative="1" as="geometry" />
        </mxCell>
        <mxCell id="YFfPmVTnKHHL20k1K9A--5" value="Interactive UI" style="rounded=0;whiteSpace=wrap;html=1;" parent="1" vertex="1">
          <mxGeometry x="540" y="320" width="115" height="60" as="geometry" />
        </mxCell>
        <mxCell id="YFfPmVTnKHHL20k1K9A--6" value="MongoDB" style="rounded=0;whiteSpace=wrap;html=1;" parent="1" vertex="1">
          <mxGeometry x="270" y="520" width="115" height="60" as="geometry" />
        </mxCell>
        <mxCell id="tVopMtu7INZ87qsOkfbR-1" style="edgeStyle=orthogonalEdgeStyle;rounded=0;orthogonalLoop=1;jettySize=auto;html=1;entryX=1;entryY=0.5;entryDx=0;entryDy=0;" edge="1" parent="1" source="YFfPmVTnKHHL20k1K9A--7" target="YFfPmVTnKHHL20k1K9A--6">
          <mxGeometry relative="1" as="geometry">
            <Array as="points">
              <mxPoint x="508" y="550" />
            </Array>
          </mxGeometry>
        </mxCell>
        <mxCell id="YFfPmVTnKHHL20k1K9A--7" value="Datenaufbereitung" style="rounded=0;whiteSpace=wrap;html=1;fontSize=12;" parent="1" vertex="1">
          <mxGeometry x="450" y="430" width="115" height="60" as="geometry" />
        </mxCell>
      </root>
    </mxGraphModel>
  </diagram>
</mxfile>
